<?xml version="1.0" encoding="utf-8" standalone="no"?>
<!DOCTYPE svg PUBLIC "-//W3C//DTD SVG 1.1//EN"
  "http://www.w3.org/Graphics/SVG/1.1/DTD/svg11.dtd">
<svg xmlns:xlink="http://www.w3.org/1999/xlink" width="460.8pt" height="345.6pt" viewBox="0 0 460.8 345.6" xmlns="http://www.w3.org/2000/svg" version="1.1">
 <metadata>
  <rdf:RDF xmlns:dc="http://purl.org/dc/elements/1.1/" xmlns:cc="http://creativecommons.org/ns#" xmlns:rdf="http://www.w3.org/1999/02/22-rdf-syntax-ns#">
   <cc:Work>
    <dc:type rdf:resource="http://purl.org/dc/dcmitype/StillImage"/>
    <dc:date>2025-08-14T14:41:17.129654</dc:date>
    <dc:format>image/svg+xml</dc:format>
    <dc:creator>
     <cc:Agent>
      <dc:title>Matplotlib v3.10.0, https://matplotlib.org/</dc:title>
     </cc:Agent>
    </dc:creator>
   </cc:Work>
  </rdf:RDF>
 </metadata>
 <defs>
  <style type="text/css">*{stroke-linejoin: round; stroke-linecap: butt}</style>
 </defs>
 <g id="figure_1">
  <g id="patch_1">
   <path d="M 0 345.6 
L 460.8 345.6 
L 460.8 0 
L 0 0 
z
" style="fill: #ffffff"/>
  </g>
  <g id="axes_1">
   <g id="patch_2">
    <path d="M 47.81 303.64 
L 450 303.64 
L 450 39.912 
L 47.81 39.912 
z
" style="fill: #ffffff"/>
   </g>
   <g id="matplotlib.axis_1">
    <g id="xtick_1">
     <g id="line2d_1">
      <path d="M 66.091364 303.64 
L 66.091364 39.912 
" clip-path="url(#p3a0ec4559f)" style="fill: none; stroke: #b0b0b0; stroke-width: 0.8; stroke-linecap: square"/>
     </g>
     <g id="line2d_2">
      <defs>
       <path id="m8d6891e78c" d="M 0 0 
L 0 3.5 
" style="stroke: #000000; stroke-width: 0.8"/>
      </defs>
      <g>
       <use xlink:href="#m8d6891e78c" x="66.091364" y="303.64" style="stroke: #000000; stroke-width: 0.8"/>
      </g>
     </g>
     <g id="text_1">
      <!-- 0 -->
      <g transform="translate(62.910114 318.238437) scale(0.1 -0.1)">
       <defs>
        <path id="DejaVuSans-30" d="M 2034 4250 
Q 1547 4250 1301 3770 
Q 1056 3291 1056 2328 
Q 1056 1369 1301 889 
Q 1547 409 2034 409 
Q 2525 409 2770 889 
Q 3016 1369 3016 2328 
Q 3016 3291 2770 3770 
Q 2525 4250 2034 4250 
z
M 2034 4750 
Q 2819 4750 3233 4129 
Q 3647 3509 3647 2328 
Q 3647 1150 3233 529 
Q 2819 -91 2034 -91 
Q 1250 -91 836 529 
Q 422 1150 422 2328 
Q 422 3509 836 4129 
Q 1250 4750 2034 4750 
z
" transform="scale(0.015625)"/>
       </defs>
       <use xlink:href="#DejaVuSans-30"/>
      </g>
     </g>
    </g>
    <g id="xtick_2">
     <g id="line2d_3">
      <path d="M 139.955459 303.64 
L 139.955459 39.912 
" clip-path="url(#p3a0ec4559f)" style="fill: none; stroke: #b0b0b0; stroke-width: 0.8; stroke-linecap: square"/>
     </g>
     <g id="line2d_4">
      <g>
       <use xlink:href="#m8d6891e78c" x="139.955459" y="303.64" style="stroke: #000000; stroke-width: 0.8"/>
      </g>
     </g>
     <g id="text_2">
      <!-- 20 -->
      <g transform="translate(133.592959 318.238437) scale(0.1 -0.1)">
       <defs>
        <path id="DejaVuSans-32" d="M 1228 531 
L 3431 531 
L 3431 0 
L 469 0 
L 469 531 
Q 828 903 1448 1529 
Q 2069 2156 2228 2338 
Q 2531 2678 2651 2914 
Q 2772 3150 2772 3378 
Q 2772 3750 2511 3984 
Q 2250 4219 1831 4219 
Q 1534 4219 1204 4116 
Q 875 4013 500 3803 
L 500 4441 
Q 881 4594 1212 4672 
Q 1544 4750 1819 4750 
Q 2544 4750 2975 4387 
Q 3406 4025 3406 3419 
Q 3406 3131 3298 2873 
Q 3191 2616 2906 2266 
Q 2828 2175 2409 1742 
Q 1991 1309 1228 531 
z
" transform="scale(0.015625)"/>
       </defs>
       <use xlink:href="#DejaVuSans-32"/>
       <use xlink:href="#DejaVuSans-30" transform="translate(63.623047 0)"/>
      </g>
     </g>
    </g>
    <g id="xtick_3">
     <g id="line2d_5">
      <path d="M 213.819555 303.64 
L 213.819555 39.912 
" clip-path="url(#p3a0ec4559f)" style="fill: none; stroke: #b0b0b0; stroke-width: 0.8; stroke-linecap: square"/>
     </g>
     <g id="line2d_6">
      <g>
       <use xlink:href="#m8d6891e78c" x="213.819555" y="303.64" style="stroke: #000000; stroke-width: 0.8"/>
      </g>
     </g>
     <g id="text_3">
      <!-- 40 -->
      <g transform="translate(207.457055 318.238437) scale(0.1 -0.1)">
       <defs>
        <path id="DejaVuSans-34" d="M 2419 4116 
L 825 1625 
L 2419 1625 
L 2419 4116 
z
M 2253 4666 
L 3047 4666 
L 3047 1625 
L 3713 1625 
L 3713 1100 
L 3047 1100 
L 3047 0 
L 2419 0 
L 2419 1100 
L 313 1100 
L 313 1709 
L 2253 4666 
z
" transform="scale(0.015625)"/>
       </defs>
       <use xlink:href="#DejaVuSans-34"/>
       <use xlink:href="#DejaVuSans-30" transform="translate(63.623047 0)"/>
      </g>
     </g>
    </g>
    <g id="xtick_4">
     <g id="line2d_7">
      <path d="M 287.68365 303.64 
L 287.68365 39.912 
" clip-path="url(#p3a0ec4559f)" style="fill: none; stroke: #b0b0b0; stroke-width: 0.8; stroke-linecap: square"/>
     </g>
     <g id="line2d_8">
      <g>
       <use xlink:href="#m8d6891e78c" x="287.68365" y="303.64" style="stroke: #000000; stroke-width: 0.8"/>
      </g>
     </g>
     <g id="text_4">
      <!-- 60 -->
      <g transform="translate(281.32115 318.238437) scale(0.1 -0.1)">
       <defs>
        <path id="DejaVuSans-36" d="M 2113 2584 
Q 1688 2584 1439 2293 
Q 1191 2003 1191 1497 
Q 1191 994 1439 701 
Q 1688 409 2113 409 
Q 2538 409 2786 701 
Q 3034 994 3034 1497 
Q 3034 2003 2786 2293 
Q 2538 2584 2113 2584 
z
M 3366 4563 
L 3366 3988 
Q 3128 4100 2886 4159 
Q 2644 4219 2406 4219 
Q 1781 4219 1451 3797 
Q 1122 3375 1075 2522 
Q 1259 2794 1537 2939 
Q 1816 3084 2150 3084 
Q 2853 3084 3261 2657 
Q 3669 2231 3669 1497 
Q 3669 778 3244 343 
Q 2819 -91 2113 -91 
Q 1303 -91 875 529 
Q 447 1150 447 2328 
Q 447 3434 972 4092 
Q 1497 4750 2381 4750 
Q 2619 4750 2861 4703 
Q 3103 4656 3366 4563 
z
" transform="scale(0.015625)"/>
       </defs>
       <use xlink:href="#DejaVuSans-36"/>
       <use xlink:href="#DejaVuSans-30" transform="translate(63.623047 0)"/>
      </g>
     </g>
    </g>
    <g id="xtick_5">
     <g id="line2d_9">
      <path d="M 361.547746 303.64 
L 361.547746 39.912 
" clip-path="url(#p3a0ec4559f)" style="fill: none; stroke: #b0b0b0; stroke-width: 0.8; stroke-linecap: square"/>
     </g>
     <g id="line2d_10">
      <g>
       <use xlink:href="#m8d6891e78c" x="361.547746" y="303.64" style="stroke: #000000; stroke-width: 0.8"/>
      </g>
     </g>
     <g id="text_5">
      <!-- 80 -->
      <g transform="translate(355.185246 318.238437) scale(0.1 -0.1)">
       <defs>
        <path id="DejaVuSans-38" d="M 2034 2216 
Q 1584 2216 1326 1975 
Q 1069 1734 1069 1313 
Q 1069 891 1326 650 
Q 1584 409 2034 409 
Q 2484 409 2743 651 
Q 3003 894 3003 1313 
Q 3003 1734 2745 1975 
Q 2488 2216 2034 2216 
z
M 1403 2484 
Q 997 2584 770 2862 
Q 544 3141 544 3541 
Q 544 4100 942 4425 
Q 1341 4750 2034 4750 
Q 2731 4750 3128 4425 
Q 3525 4100 3525 3541 
Q 3525 3141 3298 2862 
Q 3072 2584 2669 2484 
Q 3125 2378 3379 2068 
Q 3634 1759 3634 1313 
Q 3634 634 3220 271 
Q 2806 -91 2034 -91 
Q 1263 -91 848 271 
Q 434 634 434 1313 
Q 434 1759 690 2068 
Q 947 2378 1403 2484 
z
M 1172 3481 
Q 1172 3119 1398 2916 
Q 1625 2713 2034 2713 
Q 2441 2713 2670 2916 
Q 2900 3119 2900 3481 
Q 2900 3844 2670 4047 
Q 2441 4250 2034 4250 
Q 1625 4250 1398 4047 
Q 1172 3844 1172 3481 
z
" transform="scale(0.015625)"/>
       </defs>
       <use xlink:href="#DejaVuSans-38"/>
       <use xlink:href="#DejaVuSans-30" transform="translate(63.623047 0)"/>
      </g>
     </g>
    </g>
    <g id="xtick_6">
     <g id="line2d_11">
      <path d="M 435.411841 303.64 
L 435.411841 39.912 
" clip-path="url(#p3a0ec4559f)" style="fill: none; stroke: #b0b0b0; stroke-width: 0.8; stroke-linecap: square"/>
     </g>
     <g id="line2d_12">
      <g>
       <use xlink:href="#m8d6891e78c" x="435.411841" y="303.64" style="stroke: #000000; stroke-width: 0.8"/>
      </g>
     </g>
     <g id="text_6">
      <!-- 100 -->
      <g transform="translate(425.868091 318.238437) scale(0.1 -0.1)">
       <defs>
        <path id="DejaVuSans-31" d="M 794 531 
L 1825 531 
L 1825 4091 
L 703 3866 
L 703 4441 
L 1819 4666 
L 2450 4666 
L 2450 531 
L 3481 531 
L 3481 0 
L 794 0 
L 794 531 
z
" transform="scale(0.015625)"/>
       </defs>
       <use xlink:href="#DejaVuSans-31"/>
       <use xlink:href="#DejaVuSans-30" transform="translate(63.623047 0)"/>
       <use xlink:href="#DejaVuSans-30" transform="translate(127.246094 0)"/>
      </g>
     </g>
    </g>
    <g id="text_7">
     <!-- Lag (samples) -->
     <g transform="translate(213.606562 331.916562) scale(0.1 -0.1)">
      <defs>
       <path id="DejaVuSans-4c" d="M 628 4666 
L 1259 4666 
L 1259 531 
L 3531 531 
L 3531 0 
L 628 0 
L 628 4666 
z
" transform="scale(0.015625)"/>
       <path id="DejaVuSans-61" d="M 2194 1759 
Q 1497 1759 1228 1600 
Q 959 1441 959 1056 
Q 959 750 1161 570 
Q 1363 391 1709 391 
Q 2188 391 2477 730 
Q 2766 1069 2766 1631 
L 2766 1759 
L 2194 1759 
z
M 3341 1997 
L 3341 0 
L 2766 0 
L 2766 531 
Q 2569 213 2275 61 
Q 1981 -91 1556 -91 
Q 1019 -91 701 211 
Q 384 513 384 1019 
Q 384 1609 779 1909 
Q 1175 2209 1959 2209 
L 2766 2209 
L 2766 2266 
Q 2766 2663 2505 2880 
Q 2244 3097 1772 3097 
Q 1472 3097 1187 3025 
Q 903 2953 641 2809 
L 641 3341 
Q 956 3463 1253 3523 
Q 1550 3584 1831 3584 
Q 2591 3584 2966 3190 
Q 3341 2797 3341 1997 
z
" transform="scale(0.015625)"/>
       <path id="DejaVuSans-67" d="M 2906 1791 
Q 2906 2416 2648 2759 
Q 2391 3103 1925 3103 
Q 1463 3103 1205 2759 
Q 947 2416 947 1791 
Q 947 1169 1205 825 
Q 1463 481 1925 481 
Q 2391 481 2648 825 
Q 2906 1169 2906 1791 
z
M 3481 434 
Q 3481 -459 3084 -895 
Q 2688 -1331 1869 -1331 
Q 1566 -1331 1297 -1286 
Q 1028 -1241 775 -1147 
L 775 -588 
Q 1028 -725 1275 -790 
Q 1522 -856 1778 -856 
Q 2344 -856 2625 -561 
Q 2906 -266 2906 331 
L 2906 616 
Q 2728 306 2450 153 
Q 2172 0 1784 0 
Q 1141 0 747 490 
Q 353 981 353 1791 
Q 353 2603 747 3093 
Q 1141 3584 1784 3584 
Q 2172 3584 2450 3431 
Q 2728 3278 2906 2969 
L 2906 3500 
L 3481 3500 
L 3481 434 
z
" transform="scale(0.015625)"/>
       <path id="DejaVuSans-20" transform="scale(0.015625)"/>
       <path id="DejaVuSans-28" d="M 1984 4856 
Q 1566 4138 1362 3434 
Q 1159 2731 1159 2009 
Q 1159 1288 1364 580 
Q 1569 -128 1984 -844 
L 1484 -844 
Q 1016 -109 783 600 
Q 550 1309 550 2009 
Q 550 2706 781 3412 
Q 1013 4119 1484 4856 
L 1984 4856 
z
" transform="scale(0.015625)"/>
       <path id="DejaVuSans-73" d="M 2834 3397 
L 2834 2853 
Q 2591 2978 2328 3040 
Q 2066 3103 1784 3103 
Q 1356 3103 1142 2972 
Q 928 2841 928 2578 
Q 928 2378 1081 2264 
Q 1234 2150 1697 2047 
L 1894 2003 
Q 2506 1872 2764 1633 
Q 3022 1394 3022 966 
Q 3022 478 2636 193 
Q 2250 -91 1575 -91 
Q 1294 -91 989 -36 
Q 684 19 347 128 
L 347 722 
Q 666 556 975 473 
Q 1284 391 1588 391 
Q 1994 391 2212 530 
Q 2431 669 2431 922 
Q 2431 1156 2273 1281 
Q 2116 1406 1581 1522 
L 1381 1569 
Q 847 1681 609 1914 
Q 372 2147 372 2553 
Q 372 3047 722 3315 
Q 1072 3584 1716 3584 
Q 2034 3584 2315 3537 
Q 2597 3491 2834 3397 
z
" transform="scale(0.015625)"/>
       <path id="DejaVuSans-6d" d="M 3328 2828 
Q 3544 3216 3844 3400 
Q 4144 3584 4550 3584 
Q 5097 3584 5394 3201 
Q 5691 2819 5691 2113 
L 5691 0 
L 5113 0 
L 5113 2094 
Q 5113 2597 4934 2840 
Q 4756 3084 4391 3084 
Q 3944 3084 3684 2787 
Q 3425 2491 3425 1978 
L 3425 0 
L 2847 0 
L 2847 2094 
Q 2847 2600 2669 2842 
Q 2491 3084 2119 3084 
Q 1678 3084 1418 2786 
Q 1159 2488 1159 1978 
L 1159 0 
L 581 0 
L 581 3500 
L 1159 3500 
L 1159 2956 
Q 1356 3278 1631 3431 
Q 1906 3584 2284 3584 
Q 2666 3584 2933 3390 
Q 3200 3197 3328 2828 
z
" transform="scale(0.015625)"/>
       <path id="DejaVuSans-70" d="M 1159 525 
L 1159 -1331 
L 581 -1331 
L 581 3500 
L 1159 3500 
L 1159 2969 
Q 1341 3281 1617 3432 
Q 1894 3584 2278 3584 
Q 2916 3584 3314 3078 
Q 3713 2572 3713 1747 
Q 3713 922 3314 415 
Q 2916 -91 2278 -91 
Q 1894 -91 1617 61 
Q 1341 213 1159 525 
z
M 3116 1747 
Q 3116 2381 2855 2742 
Q 2594 3103 2138 3103 
Q 1681 3103 1420 2742 
Q 1159 2381 1159 1747 
Q 1159 1113 1420 752 
Q 1681 391 2138 391 
Q 2594 391 2855 752 
Q 3116 1113 3116 1747 
z
" transform="scale(0.015625)"/>
       <path id="DejaVuSans-6c" d="M 603 4863 
L 1178 4863 
L 1178 0 
L 603 0 
L 603 4863 
z
" transform="scale(0.015625)"/>
       <path id="DejaVuSans-65" d="M 3597 1894 
L 3597 1613 
L 953 1613 
Q 991 1019 1311 708 
Q 1631 397 2203 397 
Q 2534 397 2845 478 
Q 3156 559 3463 722 
L 3463 178 
Q 3153 47 2828 -22 
Q 2503 -91 2169 -91 
Q 1331 -91 842 396 
Q 353 884 353 1716 
Q 353 2575 817 3079 
Q 1281 3584 2069 3584 
Q 2775 3584 3186 3129 
Q 3597 2675 3597 1894 
z
M 3022 2063 
Q 3016 2534 2758 2815 
Q 2500 3097 2075 3097 
Q 1594 3097 1305 2825 
Q 1016 2553 972 2059 
L 3022 2063 
z
" transform="scale(0.015625)"/>
       <path id="DejaVuSans-29" d="M 513 4856 
L 1013 4856 
Q 1481 4119 1714 3412 
Q 1947 2706 1947 2009 
Q 1947 1309 1714 600 
Q 1481 -109 1013 -844 
L 513 -844 
Q 928 -128 1133 580 
Q 1338 1288 1338 2009 
Q 1338 2731 1133 3434 
Q 928 4138 513 4856 
z
" transform="scale(0.015625)"/>
      </defs>
      <use xlink:href="#DejaVuSans-4c"/>
      <use xlink:href="#DejaVuSans-61" transform="translate(55.712891 0)"/>
      <use xlink:href="#DejaVuSans-67" transform="translate(116.992188 0)"/>
      <use xlink:href="#DejaVuSans-20" transform="translate(180.46875 0)"/>
      <use xlink:href="#DejaVuSans-28" transform="translate(212.255859 0)"/>
      <use xlink:href="#DejaVuSans-73" transform="translate(251.269531 0)"/>
      <use xlink:href="#DejaVuSans-61" transform="translate(303.369141 0)"/>
      <use xlink:href="#DejaVuSans-6d" transform="translate(364.648438 0)"/>
      <use xlink:href="#DejaVuSans-70" transform="translate(462.060547 0)"/>
      <use xlink:href="#DejaVuSans-6c" transform="translate(525.537109 0)"/>
      <use xlink:href="#DejaVuSans-65" transform="translate(553.320312 0)"/>
      <use xlink:href="#DejaVuSans-73" transform="translate(614.84375 0)"/>
      <use xlink:href="#DejaVuSans-29" transform="translate(666.943359 0)"/>
     </g>
    </g>
   </g>
   <g id="matplotlib.axis_2">
    <g id="ytick_1">
     <g id="line2d_13">
      <path d="M 47.81 276.76462 
L 450 276.76462 
" clip-path="url(#p3a0ec4559f)" style="fill: none; stroke: #b0b0b0; stroke-width: 0.8; stroke-linecap: square"/>
     </g>
     <g id="line2d_14">
      <defs>
       <path id="m90130f8b87" d="M 0 0 
L -3.5 0 
" style="stroke: #000000; stroke-width: 0.8"/>
      </defs>
      <g>
       <use xlink:href="#m90130f8b87" x="47.81" y="276.76462" style="stroke: #000000; stroke-width: 0.8"/>
      </g>
     </g>
     <g id="text_8">
      <!-- 0.6 -->
      <g transform="translate(24.906875 280.563839) scale(0.1 -0.1)">
       <defs>
        <path id="DejaVuSans-2e" d="M 684 794 
L 1344 794 
L 1344 0 
L 684 0 
L 684 794 
z
" transform="scale(0.015625)"/>
       </defs>
       <use xlink:href="#DejaVuSans-30"/>
       <use xlink:href="#DejaVuSans-2e" transform="translate(63.623047 0)"/>
       <use xlink:href="#DejaVuSans-36" transform="translate(95.410156 0)"/>
      </g>
     </g>
    </g>
    <g id="ytick_2">
     <g id="line2d_15">
      <path d="M 47.81 245.592104 
L 450 245.592104 
" clip-path="url(#p3a0ec4559f)" style="fill: none; stroke: #b0b0b0; stroke-width: 0.8; stroke-linecap: square"/>
     </g>
     <g id="line2d_16">
      <g>
       <use xlink:href="#m90130f8b87" x="47.81" y="245.592104" style="stroke: #000000; stroke-width: 0.8"/>
      </g>
     </g>
     <g id="text_9">
      <!-- 0.8 -->
      <g transform="translate(24.906875 249.391322) scale(0.1 -0.1)">
       <use xlink:href="#DejaVuSans-30"/>
       <use xlink:href="#DejaVuSans-2e" transform="translate(63.623047 0)"/>
       <use xlink:href="#DejaVuSans-38" transform="translate(95.410156 0)"/>
      </g>
     </g>
    </g>
    <g id="ytick_3">
     <g id="line2d_17">
      <path d="M 47.81 214.419587 
L 450 214.419587 
" clip-path="url(#p3a0ec4559f)" style="fill: none; stroke: #b0b0b0; stroke-width: 0.8; stroke-linecap: square"/>
     </g>
     <g id="line2d_18">
      <g>
       <use xlink:href="#m90130f8b87" x="47.81" y="214.419587" style="stroke: #000000; stroke-width: 0.8"/>
      </g>
     </g>
     <g id="text_10">
      <!-- 1.0 -->
      <g transform="translate(24.906875 218.218806) scale(0.1 -0.1)">
       <use xlink:href="#DejaVuSans-31"/>
       <use xlink:href="#DejaVuSans-2e" transform="translate(63.623047 0)"/>
       <use xlink:href="#DejaVuSans-30" transform="translate(95.410156 0)"/>
      </g>
     </g>
    </g>
    <g id="ytick_4">
     <g id="line2d_19">
      <path d="M 47.81 183.24707 
L 450 183.24707 
" clip-path="url(#p3a0ec4559f)" style="fill: none; stroke: #b0b0b0; stroke-width: 0.8; stroke-linecap: square"/>
     </g>
     <g id="line2d_20">
      <g>
       <use xlink:href="#m90130f8b87" x="47.81" y="183.24707" style="stroke: #000000; stroke-width: 0.8"/>
      </g>
     </g>
     <g id="text_11">
      <!-- 1.2 -->
      <g transform="translate(24.906875 187.046289) scale(0.1 -0.1)">
       <use xlink:href="#DejaVuSans-31"/>
       <use xlink:href="#DejaVuSans-2e" transform="translate(63.623047 0)"/>
       <use xlink:href="#DejaVuSans-32" transform="translate(95.410156 0)"/>
      </g>
     </g>
    </g>
    <g id="ytick_5">
     <g id="line2d_21">
      <path d="M 47.81 152.074553 
L 450 152.074553 
" clip-path="url(#p3a0ec4559f)" style="fill: none; stroke: #b0b0b0; stroke-width: 0.8; stroke-linecap: square"/>
     </g>
     <g id="line2d_22">
      <g>
       <use xlink:href="#m90130f8b87" x="47.81" y="152.074553" style="stroke: #000000; stroke-width: 0.8"/>
      </g>
     </g>
     <g id="text_12">
      <!-- 1.4 -->
      <g transform="translate(24.906875 155.873772) scale(0.1 -0.1)">
       <use xlink:href="#DejaVuSans-31"/>
       <use xlink:href="#DejaVuSans-2e" transform="translate(63.623047 0)"/>
       <use xlink:href="#DejaVuSans-34" transform="translate(95.410156 0)"/>
      </g>
     </g>
    </g>
    <g id="ytick_6">
     <g id="line2d_23">
      <path d="M 47.81 120.902036 
L 450 120.902036 
" clip-path="url(#p3a0ec4559f)" style="fill: none; stroke: #b0b0b0; stroke-width: 0.8; stroke-linecap: square"/>
     </g>
     <g id="line2d_24">
      <g>
       <use xlink:href="#m90130f8b87" x="47.81" y="120.902036" style="stroke: #000000; stroke-width: 0.8"/>
      </g>
     </g>
     <g id="text_13">
      <!-- 1.6 -->
      <g transform="translate(24.906875 124.701255) scale(0.1 -0.1)">
       <use xlink:href="#DejaVuSans-31"/>
       <use xlink:href="#DejaVuSans-2e" transform="translate(63.623047 0)"/>
       <use xlink:href="#DejaVuSans-36" transform="translate(95.410156 0)"/>
      </g>
     </g>
    </g>
    <g id="ytick_7">
     <g id="line2d_25">
      <path d="M 47.81 89.72952 
L 450 89.72952 
" clip-path="url(#p3a0ec4559f)" style="fill: none; stroke: #b0b0b0; stroke-width: 0.8; stroke-linecap: square"/>
     </g>
     <g id="line2d_26">
      <g>
       <use xlink:href="#m90130f8b87" x="47.81" y="89.72952" style="stroke: #000000; stroke-width: 0.8"/>
      </g>
     </g>
     <g id="text_14">
      <!-- 1.8 -->
      <g transform="translate(24.906875 93.528738) scale(0.1 -0.1)">
       <use xlink:href="#DejaVuSans-31"/>
       <use xlink:href="#DejaVuSans-2e" transform="translate(63.623047 0)"/>
       <use xlink:href="#DejaVuSans-38" transform="translate(95.410156 0)"/>
      </g>
     </g>
    </g>
    <g id="ytick_8">
     <g id="line2d_27">
      <path d="M 47.81 58.557003 
L 450 58.557003 
" clip-path="url(#p3a0ec4559f)" style="fill: none; stroke: #b0b0b0; stroke-width: 0.8; stroke-linecap: square"/>
     </g>
     <g id="line2d_28">
      <g>
       <use xlink:href="#m90130f8b87" x="47.81" y="58.557003" style="stroke: #000000; stroke-width: 0.8"/>
      </g>
     </g>
     <g id="text_15">
      <!-- 2.0 -->
      <g transform="translate(24.906875 62.356222) scale(0.1 -0.1)">
       <use xlink:href="#DejaVuSans-32"/>
       <use xlink:href="#DejaVuSans-2e" transform="translate(63.623047 0)"/>
       <use xlink:href="#DejaVuSans-30" transform="translate(95.410156 0)"/>
      </g>
     </g>
    </g>
    <g id="text_16">
     <!-- Cross Average Mutual Information -->
     <g transform="translate(18.827188 256.786938) rotate(-90) scale(0.1 -0.1)">
      <defs>
       <path id="DejaVuSans-43" d="M 4122 4306 
L 4122 3641 
Q 3803 3938 3442 4084 
Q 3081 4231 2675 4231 
Q 1875 4231 1450 3742 
Q 1025 3253 1025 2328 
Q 1025 1406 1450 917 
Q 1875 428 2675 428 
Q 3081 428 3442 575 
Q 3803 722 4122 1019 
L 4122 359 
Q 3791 134 3420 21 
Q 3050 -91 2638 -91 
Q 1578 -91 968 557 
Q 359 1206 359 2328 
Q 359 3453 968 4101 
Q 1578 4750 2638 4750 
Q 3056 4750 3426 4639 
Q 3797 4528 4122 4306 
z
" transform="scale(0.015625)"/>
       <path id="DejaVuSans-72" d="M 2631 2963 
Q 2534 3019 2420 3045 
Q 2306 3072 2169 3072 
Q 1681 3072 1420 2755 
Q 1159 2438 1159 1844 
L 1159 0 
L 581 0 
L 581 3500 
L 1159 3500 
L 1159 2956 
Q 1341 3275 1631 3429 
Q 1922 3584 2338 3584 
Q 2397 3584 2469 3576 
Q 2541 3569 2628 3553 
L 2631 2963 
z
" transform="scale(0.015625)"/>
       <path id="DejaVuSans-6f" d="M 1959 3097 
Q 1497 3097 1228 2736 
Q 959 2375 959 1747 
Q 959 1119 1226 758 
Q 1494 397 1959 397 
Q 2419 397 2687 759 
Q 2956 1122 2956 1747 
Q 2956 2369 2687 2733 
Q 2419 3097 1959 3097 
z
M 1959 3584 
Q 2709 3584 3137 3096 
Q 3566 2609 3566 1747 
Q 3566 888 3137 398 
Q 2709 -91 1959 -91 
Q 1206 -91 779 398 
Q 353 888 353 1747 
Q 353 2609 779 3096 
Q 1206 3584 1959 3584 
z
" transform="scale(0.015625)"/>
       <path id="DejaVuSans-41" d="M 2188 4044 
L 1331 1722 
L 3047 1722 
L 2188 4044 
z
M 1831 4666 
L 2547 4666 
L 4325 0 
L 3669 0 
L 3244 1197 
L 1141 1197 
L 716 0 
L 50 0 
L 1831 4666 
z
" transform="scale(0.015625)"/>
       <path id="DejaVuSans-76" d="M 191 3500 
L 800 3500 
L 1894 563 
L 2988 3500 
L 3597 3500 
L 2284 0 
L 1503 0 
L 191 3500 
z
" transform="scale(0.015625)"/>
       <path id="DejaVuSans-4d" d="M 628 4666 
L 1569 4666 
L 2759 1491 
L 3956 4666 
L 4897 4666 
L 4897 0 
L 4281 0 
L 4281 4097 
L 3078 897 
L 2444 897 
L 1241 4097 
L 1241 0 
L 628 0 
L 628 4666 
z
" transform="scale(0.015625)"/>
       <path id="DejaVuSans-75" d="M 544 1381 
L 544 3500 
L 1119 3500 
L 1119 1403 
Q 1119 906 1312 657 
Q 1506 409 1894 409 
Q 2359 409 2629 706 
Q 2900 1003 2900 1516 
L 2900 3500 
L 3475 3500 
L 3475 0 
L 2900 0 
L 2900 538 
Q 2691 219 2414 64 
Q 2138 -91 1772 -91 
Q 1169 -91 856 284 
Q 544 659 544 1381 
z
M 1991 3584 
L 1991 3584 
z
" transform="scale(0.015625)"/>
       <path id="DejaVuSans-74" d="M 1172 4494 
L 1172 3500 
L 2356 3500 
L 2356 3053 
L 1172 3053 
L 1172 1153 
Q 1172 725 1289 603 
Q 1406 481 1766 481 
L 2356 481 
L 2356 0 
L 1766 0 
Q 1100 0 847 248 
Q 594 497 594 1153 
L 594 3053 
L 172 3053 
L 172 3500 
L 594 3500 
L 594 4494 
L 1172 4494 
z
" transform="scale(0.015625)"/>
       <path id="DejaVuSans-49" d="M 628 4666 
L 1259 4666 
L 1259 0 
L 628 0 
L 628 4666 
z
" transform="scale(0.015625)"/>
       <path id="DejaVuSans-6e" d="M 3513 2113 
L 3513 0 
L 2938 0 
L 2938 2094 
Q 2938 2591 2744 2837 
Q 2550 3084 2163 3084 
Q 1697 3084 1428 2787 
Q 1159 2491 1159 1978 
L 1159 0 
L 581 0 
L 581 3500 
L 1159 3500 
L 1159 2956 
Q 1366 3272 1645 3428 
Q 1925 3584 2291 3584 
Q 2894 3584 3203 3211 
Q 3513 2838 3513 2113 
z
" transform="scale(0.015625)"/>
       <path id="DejaVuSans-66" d="M 2375 4863 
L 2375 4384 
L 1825 4384 
Q 1516 4384 1395 4259 
Q 1275 4134 1275 3809 
L 1275 3500 
L 2222 3500 
L 2222 3053 
L 1275 3053 
L 1275 0 
L 697 0 
L 697 3053 
L 147 3053 
L 147 3500 
L 697 3500 
L 697 3744 
Q 697 4328 969 4595 
Q 1241 4863 1831 4863 
L 2375 4863 
z
" transform="scale(0.015625)"/>
       <path id="DejaVuSans-69" d="M 603 3500 
L 1178 3500 
L 1178 0 
L 603 0 
L 603 3500 
z
M 603 4863 
L 1178 4863 
L 1178 4134 
L 603 4134 
L 603 4863 
z
" transform="scale(0.015625)"/>
      </defs>
      <use xlink:href="#DejaVuSans-43"/>
      <use xlink:href="#DejaVuSans-72" transform="translate(69.824219 0)"/>
      <use xlink:href="#DejaVuSans-6f" transform="translate(108.6875 0)"/>
      <use xlink:href="#DejaVuSans-73" transform="translate(169.869141 0)"/>
      <use xlink:href="#DejaVuSans-73" transform="translate(221.96875 0)"/>
      <use xlink:href="#DejaVuSans-20" transform="translate(274.068359 0)"/>
      <use xlink:href="#DejaVuSans-41" transform="translate(305.855469 0)"/>
      <use xlink:href="#DejaVuSans-76" transform="translate(368.388672 0)"/>
      <use xlink:href="#DejaVuSans-65" transform="translate(427.568359 0)"/>
      <use xlink:href="#DejaVuSans-72" transform="translate(489.091797 0)"/>
      <use xlink:href="#DejaVuSans-61" transform="translate(530.205078 0)"/>
      <use xlink:href="#DejaVuSans-67" transform="translate(591.484375 0)"/>
      <use xlink:href="#DejaVuSans-65" transform="translate(654.960938 0)"/>
      <use xlink:href="#DejaVuSans-20" transform="translate(716.484375 0)"/>
      <use xlink:href="#DejaVuSans-4d" transform="translate(748.271484 0)"/>
      <use xlink:href="#DejaVuSans-75" transform="translate(834.550781 0)"/>
      <use xlink:href="#DejaVuSans-74" transform="translate(897.929688 0)"/>
      <use xlink:href="#DejaVuSans-75" transform="translate(937.138672 0)"/>
      <use xlink:href="#DejaVuSans-61" transform="translate(1000.517578 0)"/>
      <use xlink:href="#DejaVuSans-6c" transform="translate(1061.796875 0)"/>
      <use xlink:href="#DejaVuSans-20" transform="translate(1089.580078 0)"/>
      <use xlink:href="#DejaVuSans-49" transform="translate(1121.367188 0)"/>
      <use xlink:href="#DejaVuSans-6e" transform="translate(1150.859375 0)"/>
      <use xlink:href="#DejaVuSans-66" transform="translate(1214.238281 0)"/>
      <use xlink:href="#DejaVuSans-6f" transform="translate(1249.443359 0)"/>
      <use xlink:href="#DejaVuSans-72" transform="translate(1310.625 0)"/>
      <use xlink:href="#DejaVuSans-6d" transform="translate(1349.988281 0)"/>
      <use xlink:href="#DejaVuSans-61" transform="translate(1447.400391 0)"/>
      <use xlink:href="#DejaVuSans-74" transform="translate(1508.679688 0)"/>
      <use xlink:href="#DejaVuSans-69" transform="translate(1547.888672 0)"/>
      <use xlink:href="#DejaVuSans-6f" transform="translate(1575.671875 0)"/>
      <use xlink:href="#DejaVuSans-6e" transform="translate(1636.853516 0)"/>
     </g>
    </g>
   </g>
   <g id="line2d_29">
    <path d="M 66.091364 51.899636 
L 69.784568 58.98126 
L 73.477773 68.227507 
L 77.170978 77.957839 
L 80.864183 88.177984 
L 84.557388 98.015242 
L 88.250592 107.583681 
L 91.943797 116.729551 
L 95.637002 125.548265 
L 99.330207 133.891372 
L 103.023411 141.795425 
L 106.716616 149.341287 
L 110.409821 156.49306 
L 114.103026 163.277182 
L 117.79623 169.703024 
L 121.489435 175.763051 
L 125.18264 181.514466 
L 128.875845 186.917522 
L 132.56905 192.045814 
L 136.262254 196.874295 
L 139.955459 201.458305 
L 143.648664 205.797277 
L 147.341869 209.915789 
L 151.035073 213.757289 
L 154.728278 217.387943 
L 158.421483 220.79943 
L 162.114688 224.022166 
L 165.807893 227.057544 
L 169.501097 229.981854 
L 173.194302 232.717369 
L 176.887507 235.303948 
L 180.580712 237.733664 
L 184.273916 240.048822 
L 187.967121 242.230253 
L 191.660326 244.281743 
L 195.353531 246.261797 
L 199.046736 248.1226 
L 202.73994 249.893599 
L 206.433145 251.58903 
L 210.12635 253.196365 
L 213.819555 254.730745 
L 217.512759 256.188407 
L 221.205964 257.618292 
L 224.899169 258.951169 
L 228.592374 260.223021 
L 232.285579 261.429185 
L 235.978783 262.628313 
L 239.671988 263.707825 
L 243.365193 264.802276 
L 247.058398 265.806283 
L 250.751602 266.787698 
L 254.444807 267.735554 
L 258.138012 268.647381 
L 261.831217 269.505723 
L 265.524421 270.340291 
L 269.217626 271.124096 
L 272.910831 271.880109 
L 276.604036 272.628283 
L 280.297241 273.337032 
L 283.990445 274.034045 
L 287.68365 274.735189 
L 291.376855 275.398797 
L 295.07006 276.043797 
L 298.763264 276.656623 
L 302.456469 277.246999 
L 306.149674 277.813607 
L 309.842879 278.362808 
L 313.536084 278.916189 
L 317.229288 279.447944 
L 320.922493 279.987123 
L 324.615698 280.520955 
L 328.308903 281.007112 
L 332.002107 281.512332 
L 335.695312 281.98774 
L 339.388517 282.473869 
L 343.081722 282.961353 
L 346.774927 283.420416 
L 350.468131 283.871912 
L 354.161336 284.316048 
L 357.854541 284.756269 
L 361.547746 285.178269 
L 365.24095 285.564648 
L 368.934155 285.962947 
L 372.62736 286.325844 
L 376.320565 286.697365 
L 380.01377 287.068078 
L 383.706974 287.413381 
L 387.400179 287.778517 
L 391.093384 288.135827 
L 394.786589 288.479085 
L 398.479793 288.811403 
L 402.172998 289.11684 
L 405.866203 289.422858 
L 409.559408 289.712206 
L 413.252612 290.051687 
L 416.945817 290.379656 
L 420.639022 290.724242 
L 424.332227 291.00949 
L 428.025432 291.329089 
L 431.718636 291.652364 
" clip-path="url(#p3a0ec4559f)" style="fill: none; stroke: #1f77b4; stroke-linecap: square"/>
    <defs>
     <path id="m1cf48481b7" d="M 0 3 
C 0.795609 3 1.55874 2.683901 2.12132 2.12132 
C 2.683901 1.55874 3 0.795609 3 0 
C 3 -0.795609 2.683901 -1.55874 2.12132 -2.12132 
C 1.55874 -2.683901 0.795609 -3 0 -3 
C -0.795609 -3 -1.55874 -2.683901 -2.12132 -2.12132 
C -2.683901 -1.55874 -3 -0.795609 -3 0 
C -3 0.795609 -2.683901 1.55874 -2.12132 2.12132 
C -1.55874 2.683901 -0.795609 3 0 3 
z
" style="stroke: #1f77b4"/>
    </defs>
    <g clip-path="url(#p3a0ec4559f)">
     <use xlink:href="#m1cf48481b7" x="66.091364" y="51.899636" style="fill: #1f77b4; stroke: #1f77b4"/>
     <use xlink:href="#m1cf48481b7" x="69.784568" y="58.98126" style="fill: #1f77b4; stroke: #1f77b4"/>
     <use xlink:href="#m1cf48481b7" x="73.477773" y="68.227507" style="fill: #1f77b4; stroke: #1f77b4"/>
     <use xlink:href="#m1cf48481b7" x="77.170978" y="77.957839" style="fill: #1f77b4; stroke: #1f77b4"/>
     <use xlink:href="#m1cf48481b7" x="80.864183" y="88.177984" style="fill: #1f77b4; stroke: #1f77b4"/>
     <use xlink:href="#m1cf48481b7" x="84.557388" y="98.015242" style="fill: #1f77b4; stroke: #1f77b4"/>
     <use xlink:href="#m1cf48481b7" x="88.250592" y="107.583681" style="fill: #1f77b4; stroke: #1f77b4"/>
     <use xlink:href="#m1cf48481b7" x="91.943797" y="116.729551" style="fill: #1f77b4; stroke: #1f77b4"/>
     <use xlink:href="#m1cf48481b7" x="95.637002" y="125.548265" style="fill: #1f77b4; stroke: #1f77b4"/>
     <use xlink:href="#m1cf48481b7" x="99.330207" y="133.891372" style="fill: #1f77b4; stroke: #1f77b4"/>
     <use xlink:href="#m1cf48481b7" x="103.023411" y="141.795425" style="fill: #1f77b4; stroke: #1f77b4"/>
     <use xlink:href="#m1cf48481b7" x="106.716616" y="149.341287" style="fill: #1f77b4; stroke: #1f77b4"/>
     <use xlink:href="#m1cf48481b7" x="110.409821" y="156.49306" style="fill: #1f77b4; stroke: #1f77b4"/>
     <use xlink:href="#m1cf48481b7" x="114.103026" y="163.277182" style="fill: #1f77b4; stroke: #1f77b4"/>
     <use xlink:href="#m1cf48481b7" x="117.79623" y="169.703024" style="fill: #1f77b4; stroke: #1f77b4"/>
     <use xlink:href="#m1cf48481b7" x="121.489435" y="175.763051" style="fill: #1f77b4; stroke: #1f77b4"/>
     <use xlink:href="#m1cf48481b7" x="125.18264" y="181.514466" style="fill: #1f77b4; stroke: #1f77b4"/>
     <use xlink:href="#m1cf48481b7" x="128.875845" y="186.917522" style="fill: #1f77b4; stroke: #1f77b4"/>
     <use xlink:href="#m1cf48481b7" x="132.56905" y="192.045814" style="fill: #1f77b4; stroke: #1f77b4"/>
     <use xlink:href="#m1cf48481b7" x="136.262254" y="196.874295" style="fill: #1f77b4; stroke: #1f77b4"/>
     <use xlink:href="#m1cf48481b7" x="139.955459" y="201.458305" style="fill: #1f77b4; stroke: #1f77b4"/>
     <use xlink:href="#m1cf48481b7" x="143.648664" y="205.797277" style="fill: #1f77b4; stroke: #1f77b4"/>
     <use xlink:href="#m1cf48481b7" x="147.341869" y="209.915789" style="fill: #1f77b4; stroke: #1f77b4"/>
     <use xlink:href="#m1cf48481b7" x="151.035073" y="213.757289" style="fill: #1f77b4; stroke: #1f77b4"/>
     <use xlink:href="#m1cf48481b7" x="154.728278" y="217.387943" style="fill: #1f77b4; stroke: #1f77b4"/>
     <use xlink:href="#m1cf48481b7" x="158.421483" y="220.79943" style="fill: #1f77b4; stroke: #1f77b4"/>
     <use xlink:href="#m1cf48481b7" x="162.114688" y="224.022166" style="fill: #1f77b4; stroke: #1f77b4"/>
     <use xlink:href="#m1cf48481b7" x="165.807893" y="227.057544" style="fill: #1f77b4; stroke: #1f77b4"/>
     <use xlink:href="#m1cf48481b7" x="169.501097" y="229.981854" style="fill: #1f77b4; stroke: #1f77b4"/>
     <use xlink:href="#m1cf48481b7" x="173.194302" y="232.717369" style="fill: #1f77b4; stroke: #1f77b4"/>
     <use xlink:href="#m1cf48481b7" x="176.887507" y="235.303948" style="fill: #1f77b4; stroke: #1f77b4"/>
     <use xlink:href="#m1cf48481b7" x="180.580712" y="237.733664" style="fill: #1f77b4; stroke: #1f77b4"/>
     <use xlink:href="#m1cf48481b7" x="184.273916" y="240.048822" style="fill: #1f77b4; stroke: #1f77b4"/>
     <use xlink:href="#m1cf48481b7" x="187.967121" y="242.230253" style="fill: #1f77b4; stroke: #1f77b4"/>
     <use xlink:href="#m1cf48481b7" x="191.660326" y="244.281743" style="fill: #1f77b4; stroke: #1f77b4"/>
     <use xlink:href="#m1cf48481b7" x="195.353531" y="246.261797" style="fill: #1f77b4; stroke: #1f77b4"/>
     <use xlink:href="#m1cf48481b7" x="199.046736" y="248.1226" style="fill: #1f77b4; stroke: #1f77b4"/>
     <use xlink:href="#m1cf48481b7" x="202.73994" y="249.893599" style="fill: #1f77b4; stroke: #1f77b4"/>
     <use xlink:href="#m1cf48481b7" x="206.433145" y="251.58903" style="fill: #1f77b4; stroke: #1f77b4"/>
     <use xlink:href="#m1cf48481b7" x="210.12635" y="253.196365" style="fill: #1f77b4; stroke: #1f77b4"/>
     <use xlink:href="#m1cf48481b7" x="213.819555" y="254.730745" style="fill: #1f77b4; stroke: #1f77b4"/>
     <use xlink:href="#m1cf48481b7" x="217.512759" y="256.188407" style="fill: #1f77b4; stroke: #1f77b4"/>
     <use xlink:href="#m1cf48481b7" x="221.205964" y="257.618292" style="fill: #1f77b4; stroke: #1f77b4"/>
     <use xlink:href="#m1cf48481b7" x="224.899169" y="258.951169" style="fill: #1f77b4; stroke: #1f77b4"/>
     <use xlink:href="#m1cf48481b7" x="228.592374" y="260.223021" style="fill: #1f77b4; stroke: #1f77b4"/>
     <use xlink:href="#m1cf48481b7" x="232.285579" y="261.429185" style="fill: #1f77b4; stroke: #1f77b4"/>
     <use xlink:href="#m1cf48481b7" x="235.978783" y="262.628313" style="fill: #1f77b4; stroke: #1f77b4"/>
     <use xlink:href="#m1cf48481b7" x="239.671988" y="263.707825" style="fill: #1f77b4; stroke: #1f77b4"/>
     <use xlink:href="#m1cf48481b7" x="243.365193" y="264.802276" style="fill: #1f77b4; stroke: #1f77b4"/>
     <use xlink:href="#m1cf48481b7" x="247.058398" y="265.806283" style="fill: #1f77b4; stroke: #1f77b4"/>
     <use xlink:href="#m1cf48481b7" x="250.751602" y="266.787698" style="fill: #1f77b4; stroke: #1f77b4"/>
     <use xlink:href="#m1cf48481b7" x="254.444807" y="267.735554" style="fill: #1f77b4; stroke: #1f77b4"/>
     <use xlink:href="#m1cf48481b7" x="258.138012" y="268.647381" style="fill: #1f77b4; stroke: #1f77b4"/>
     <use xlink:href="#m1cf48481b7" x="261.831217" y="269.505723" style="fill: #1f77b4; stroke: #1f77b4"/>
     <use xlink:href="#m1cf48481b7" x="265.524421" y="270.340291" style="fill: #1f77b4; stroke: #1f77b4"/>
     <use xlink:href="#m1cf48481b7" x="269.217626" y="271.124096" style="fill: #1f77b4; stroke: #1f77b4"/>
     <use xlink:href="#m1cf48481b7" x="272.910831" y="271.880109" style="fill: #1f77b4; stroke: #1f77b4"/>
     <use xlink:href="#m1cf48481b7" x="276.604036" y="272.628283" style="fill: #1f77b4; stroke: #1f77b4"/>
     <use xlink:href="#m1cf48481b7" x="280.297241" y="273.337032" style="fill: #1f77b4; stroke: #1f77b4"/>
     <use xlink:href="#m1cf48481b7" x="283.990445" y="274.034045" style="fill: #1f77b4; stroke: #1f77b4"/>
     <use xlink:href="#m1cf48481b7" x="287.68365" y="274.735189" style="fill: #1f77b4; stroke: #1f77b4"/>
     <use xlink:href="#m1cf48481b7" x="291.376855" y="275.398797" style="fill: #1f77b4; stroke: #1f77b4"/>
     <use xlink:href="#m1cf48481b7" x="295.07006" y="276.043797" style="fill: #1f77b4; stroke: #1f77b4"/>
     <use xlink:href="#m1cf48481b7" x="298.763264" y="276.656623" style="fill: #1f77b4; stroke: #1f77b4"/>
     <use xlink:href="#m1cf48481b7" x="302.456469" y="277.246999" style="fill: #1f77b4; stroke: #1f77b4"/>
     <use xlink:href="#m1cf48481b7" x="306.149674" y="277.813607" style="fill: #1f77b4; stroke: #1f77b4"/>
     <use xlink:href="#m1cf48481b7" x="309.842879" y="278.362808" style="fill: #1f77b4; stroke: #1f77b4"/>
     <use xlink:href="#m1cf48481b7" x="313.536084" y="278.916189" style="fill: #1f77b4; stroke: #1f77b4"/>
     <use xlink:href="#m1cf48481b7" x="317.229288" y="279.447944" style="fill: #1f77b4; stroke: #1f77b4"/>
     <use xlink:href="#m1cf48481b7" x="320.922493" y="279.987123" style="fill: #1f77b4; stroke: #1f77b4"/>
     <use xlink:href="#m1cf48481b7" x="324.615698" y="280.520955" style="fill: #1f77b4; stroke: #1f77b4"/>
     <use xlink:href="#m1cf48481b7" x="328.308903" y="281.007112" style="fill: #1f77b4; stroke: #1f77b4"/>
     <use xlink:href="#m1cf48481b7" x="332.002107" y="281.512332" style="fill: #1f77b4; stroke: #1f77b4"/>
     <use xlink:href="#m1cf48481b7" x="335.695312" y="281.98774" style="fill: #1f77b4; stroke: #1f77b4"/>
     <use xlink:href="#m1cf48481b7" x="339.388517" y="282.473869" style="fill: #1f77b4; stroke: #1f77b4"/>
     <use xlink:href="#m1cf48481b7" x="343.081722" y="282.961353" style="fill: #1f77b4; stroke: #1f77b4"/>
     <use xlink:href="#m1cf48481b7" x="346.774927" y="283.420416" style="fill: #1f77b4; stroke: #1f77b4"/>
     <use xlink:href="#m1cf48481b7" x="350.468131" y="283.871912" style="fill: #1f77b4; stroke: #1f77b4"/>
     <use xlink:href="#m1cf48481b7" x="354.161336" y="284.316048" style="fill: #1f77b4; stroke: #1f77b4"/>
     <use xlink:href="#m1cf48481b7" x="357.854541" y="284.756269" style="fill: #1f77b4; stroke: #1f77b4"/>
     <use xlink:href="#m1cf48481b7" x="361.547746" y="285.178269" style="fill: #1f77b4; stroke: #1f77b4"/>
     <use xlink:href="#m1cf48481b7" x="365.24095" y="285.564648" style="fill: #1f77b4; stroke: #1f77b4"/>
     <use xlink:href="#m1cf48481b7" x="368.934155" y="285.962947" style="fill: #1f77b4; stroke: #1f77b4"/>
     <use xlink:href="#m1cf48481b7" x="372.62736" y="286.325844" style="fill: #1f77b4; stroke: #1f77b4"/>
     <use xlink:href="#m1cf48481b7" x="376.320565" y="286.697365" style="fill: #1f77b4; stroke: #1f77b4"/>
     <use xlink:href="#m1cf48481b7" x="380.01377" y="287.068078" style="fill: #1f77b4; stroke: #1f77b4"/>
     <use xlink:href="#m1cf48481b7" x="383.706974" y="287.413381" style="fill: #1f77b4; stroke: #1f77b4"/>
     <use xlink:href="#m1cf48481b7" x="387.400179" y="287.778517" style="fill: #1f77b4; stroke: #1f77b4"/>
     <use xlink:href="#m1cf48481b7" x="391.093384" y="288.135827" style="fill: #1f77b4; stroke: #1f77b4"/>
     <use xlink:href="#m1cf48481b7" x="394.786589" y="288.479085" style="fill: #1f77b4; stroke: #1f77b4"/>
     <use xlink:href="#m1cf48481b7" x="398.479793" y="288.811403" style="fill: #1f77b4; stroke: #1f77b4"/>
     <use xlink:href="#m1cf48481b7" x="402.172998" y="289.11684" style="fill: #1f77b4; stroke: #1f77b4"/>
     <use xlink:href="#m1cf48481b7" x="405.866203" y="289.422858" style="fill: #1f77b4; stroke: #1f77b4"/>
     <use xlink:href="#m1cf48481b7" x="409.559408" y="289.712206" style="fill: #1f77b4; stroke: #1f77b4"/>
     <use xlink:href="#m1cf48481b7" x="413.252612" y="290.051687" style="fill: #1f77b4; stroke: #1f77b4"/>
     <use xlink:href="#m1cf48481b7" x="416.945817" y="290.379656" style="fill: #1f77b4; stroke: #1f77b4"/>
     <use xlink:href="#m1cf48481b7" x="420.639022" y="290.724242" style="fill: #1f77b4; stroke: #1f77b4"/>
     <use xlink:href="#m1cf48481b7" x="424.332227" y="291.00949" style="fill: #1f77b4; stroke: #1f77b4"/>
     <use xlink:href="#m1cf48481b7" x="428.025432" y="291.329089" style="fill: #1f77b4; stroke: #1f77b4"/>
     <use xlink:href="#m1cf48481b7" x="431.718636" y="291.652364" style="fill: #1f77b4; stroke: #1f77b4"/>
    </g>
   </g>
   <g id="patch_3">
    <path d="M 47.81 303.64 
L 47.81 39.912 
" style="fill: none; stroke: #000000; stroke-width: 0.8; stroke-linejoin: miter; stroke-linecap: square"/>
   </g>
   <g id="patch_4">
    <path d="M 450 303.64 
L 450 39.912 
" style="fill: none; stroke: #000000; stroke-width: 0.8; stroke-linejoin: miter; stroke-linecap: square"/>
   </g>
   <g id="patch_5">
    <path d="M 47.81 303.64 
L 450 303.64 
" style="fill: none; stroke: #000000; stroke-width: 0.8; stroke-linejoin: miter; stroke-linecap: square"/>
   </g>
   <g id="patch_6">
    <path d="M 47.81 39.912 
L 450 39.912 
" style="fill: none; stroke: #000000; stroke-width: 0.8; stroke-linejoin: miter; stroke-linecap: square"/>
   </g>
   <g id="text_17">
    <!-- Cross-AMI (Averaged) -->
    <g transform="translate(184.343125 20.474625) scale(0.12 -0.12)">
     <defs>
      <path id="DejaVuSans-2d" d="M 313 2009 
L 1997 2009 
L 1997 1497 
L 313 1497 
L 313 2009 
z
" transform="scale(0.015625)"/>
      <path id="DejaVuSans-64" d="M 2906 2969 
L 2906 4863 
L 3481 4863 
L 3481 0 
L 2906 0 
L 2906 525 
Q 2725 213 2448 61 
Q 2172 -91 1784 -91 
Q 1150 -91 751 415 
Q 353 922 353 1747 
Q 353 2572 751 3078 
Q 1150 3584 1784 3584 
Q 2172 3584 2448 3432 
Q 2725 3281 2906 2969 
z
M 947 1747 
Q 947 1113 1208 752 
Q 1469 391 1925 391 
Q 2381 391 2643 752 
Q 2906 1113 2906 1747 
Q 2906 2381 2643 2742 
Q 2381 3103 1925 3103 
Q 1469 3103 1208 2742 
Q 947 2381 947 1747 
z
" transform="scale(0.015625)"/>
     </defs>
     <use xlink:href="#DejaVuSans-43"/>
     <use xlink:href="#DejaVuSans-72" transform="translate(69.824219 0)"/>
     <use xlink:href="#DejaVuSans-6f" transform="translate(108.6875 0)"/>
     <use xlink:href="#DejaVuSans-73" transform="translate(169.869141 0)"/>
     <use xlink:href="#DejaVuSans-73" transform="translate(221.96875 0)"/>
     <use xlink:href="#DejaVuSans-2d" transform="translate(274.068359 0)"/>
     <use xlink:href="#DejaVuSans-41" transform="translate(307.902344 0)"/>
     <use xlink:href="#DejaVuSans-4d" transform="translate(376.310547 0)"/>
     <use xlink:href="#DejaVuSans-49" transform="translate(462.589844 0)"/>
     <use xlink:href="#DejaVuSans-20" transform="translate(492.082031 0)"/>
     <use xlink:href="#DejaVuSans-28" transform="translate(523.869141 0)"/>
     <use xlink:href="#DejaVuSans-41" transform="translate(562.882812 0)"/>
     <use xlink:href="#DejaVuSans-76" transform="translate(625.416016 0)"/>
     <use xlink:href="#DejaVuSans-65" transform="translate(684.595703 0)"/>
     <use xlink:href="#DejaVuSans-72" transform="translate(746.119141 0)"/>
     <use xlink:href="#DejaVuSans-61" transform="translate(787.232422 0)"/>
     <use xlink:href="#DejaVuSans-67" transform="translate(848.511719 0)"/>
     <use xlink:href="#DejaVuSans-65" transform="translate(911.988281 0)"/>
     <use xlink:href="#DejaVuSans-64" transform="translate(973.511719 0)"/>
     <use xlink:href="#DejaVuSans-29" transform="translate(1036.988281 0)"/>
    </g>
    <!-- center_face_magnitude → avg_pupil_magnitude -->
    <g transform="translate(105.277187 33.912) scale(0.12 -0.12)">
     <defs>
      <path id="DejaVuSans-63" d="M 3122 3366 
L 3122 2828 
Q 2878 2963 2633 3030 
Q 2388 3097 2138 3097 
Q 1578 3097 1268 2742 
Q 959 2388 959 1747 
Q 959 1106 1268 751 
Q 1578 397 2138 397 
Q 2388 397 2633 464 
Q 2878 531 3122 666 
L 3122 134 
Q 2881 22 2623 -34 
Q 2366 -91 2075 -91 
Q 1284 -91 818 406 
Q 353 903 353 1747 
Q 353 2603 823 3093 
Q 1294 3584 2113 3584 
Q 2378 3584 2631 3529 
Q 2884 3475 3122 3366 
z
" transform="scale(0.015625)"/>
      <path id="DejaVuSans-5f" d="M 3263 -1063 
L 3263 -1509 
L -63 -1509 
L -63 -1063 
L 3263 -1063 
z
" transform="scale(0.015625)"/>
      <path id="DejaVuSans-2192" d="M 5050 2147 
L 5050 1866 
L 3822 638 
L 3447 1013 
L 4175 1741 
L 366 1741 
L 366 2272 
L 4175 2272 
L 3447 3000 
L 3822 3375 
L 5050 2147 
z
" transform="scale(0.015625)"/>
     </defs>
     <use xlink:href="#DejaVuSans-63"/>
     <use xlink:href="#DejaVuSans-65" transform="translate(54.980469 0)"/>
     <use xlink:href="#DejaVuSans-6e" transform="translate(116.503906 0)"/>
     <use xlink:href="#DejaVuSans-74" transform="translate(179.882812 0)"/>
     <use xlink:href="#DejaVuSans-65" transform="translate(219.091797 0)"/>
     <use xlink:href="#DejaVuSans-72" transform="translate(280.615234 0)"/>
     <use xlink:href="#DejaVuSans-5f" transform="translate(321.728516 0)"/>
     <use xlink:href="#DejaVuSans-66" transform="translate(371.728516 0)"/>
     <use xlink:href="#DejaVuSans-61" transform="translate(406.933594 0)"/>
     <use xlink:href="#DejaVuSans-63" transform="translate(468.212891 0)"/>
     <use xlink:href="#DejaVuSans-65" transform="translate(523.193359 0)"/>
     <use xlink:href="#DejaVuSans-5f" transform="translate(584.716797 0)"/>
     <use xlink:href="#DejaVuSans-6d" transform="translate(634.716797 0)"/>
     <use xlink:href="#DejaVuSans-61" transform="translate(732.128906 0)"/>
     <use xlink:href="#DejaVuSans-67" transform="translate(793.408203 0)"/>
     <use xlink:href="#DejaVuSans-6e" transform="translate(856.884766 0)"/>
     <use xlink:href="#DejaVuSans-69" transform="translate(920.263672 0)"/>
     <use xlink:href="#DejaVuSans-74" transform="translate(948.046875 0)"/>
     <use xlink:href="#DejaVuSans-75" transform="translate(987.255859 0)"/>
     <use xlink:href="#DejaVuSans-64" transform="translate(1050.634766 0)"/>
     <use xlink:href="#DejaVuSans-65" transform="translate(1114.111328 0)"/>
     <use xlink:href="#DejaVuSans-20" transform="translate(1175.634766 0)"/>
     <use xlink:href="#DejaVuSans-2192" transform="translate(1207.421875 0)"/>
     <use xlink:href="#DejaVuSans-20" transform="translate(1291.210938 0)"/>
     <use xlink:href="#DejaVuSans-61" transform="translate(1322.998047 0)"/>
     <use xlink:href="#DejaVuSans-76" transform="translate(1384.277344 0)"/>
     <use xlink:href="#DejaVuSans-67" transform="translate(1443.457031 0)"/>
     <use xlink:href="#DejaVuSans-5f" transform="translate(1506.933594 0)"/>
     <use xlink:href="#DejaVuSans-70" transform="translate(1556.933594 0)"/>
     <use xlink:href="#DejaVuSans-75" transform="translate(1620.410156 0)"/>
     <use xlink:href="#DejaVuSans-70" transform="translate(1683.789062 0)"/>
     <use xlink:href="#DejaVuSans-69" transform="translate(1747.265625 0)"/>
     <use xlink:href="#DejaVuSans-6c" transform="translate(1775.048828 0)"/>
     <use xlink:href="#DejaVuSans-5f" transform="translate(1802.832031 0)"/>
     <use xlink:href="#DejaVuSans-6d" transform="translate(1852.832031 0)"/>
     <use xlink:href="#DejaVuSans-61" transform="translate(1950.244141 0)"/>
     <use xlink:href="#DejaVuSans-67" transform="translate(2011.523438 0)"/>
     <use xlink:href="#DejaVuSans-6e" transform="translate(2075 0)"/>
     <use xlink:href="#DejaVuSans-69" transform="translate(2138.378906 0)"/>
     <use xlink:href="#DejaVuSans-74" transform="translate(2166.162109 0)"/>
     <use xlink:href="#DejaVuSans-75" transform="translate(2205.371094 0)"/>
     <use xlink:href="#DejaVuSans-64" transform="translate(2268.75 0)"/>
     <use xlink:href="#DejaVuSans-65" transform="translate(2332.226562 0)"/>
    </g>
   </g>
  </g>
 </g>
 <defs>
  <clipPath id="p3a0ec4559f">
   <rect x="47.81" y="39.912" width="402.19" height="263.728"/>
  </clipPath>
 </defs>
</svg>
